<svg id="Layer_1" data-name="Layer 1" xmlns="http://www.w3.org/2000/svg" viewBox="0 0 285.01 671.19"><defs><style>.cls-1{fill:#f7931e;}.cls-2{fill:red;}.cls-3,.cls-4{fill:none;stroke-miterlimit:10;}.cls-3{stroke:#231f20;stroke-linecap:round;}.cls-4{stroke:#000;}</style></defs><title>happyhuman</title><path class="cls-1" d="M572.5,982.5h-23l-12.88-5.94V939.92a80.51,80.51,0,0,0,50.88,1.35V977.5l.21,1.31-9.21,2.69Z" transform="translate(-430.49 -783.81)"/><path class="cls-1" d="M611.5,1228.5h72c0,16.31-15.88,29.5-35.5,29.5-19.08,0-34.77-11.69-36.78-26.72Z" transform="translate(-430.49 -783.81)"/><path class="cls-1" d="M587.5,941.27a78.2,78.2,0,1,1,.21-.06Z" transform="translate(-430.49 -783.81)"/><path class="cls-1" d="M431.5,1228.5h73c0,16.58-16.1,30-36,30C448.05,1258.5,431.5,1245.08,431.5,1228.5Z" transform="translate(-430.49 -783.81)"/><path class="cls-2" d="M474.51,979.45a35.73,35.73,0,1,1-2.63-.52C472.77,979.07,473.65,979.24,474.51,979.45Z" transform="translate(-430.49 -783.81)"/><path class="cls-2" d="M611.5,1019v209H611V1017h.37C611.4,1017.67,611.44,1018.32,611.5,1019Z" transform="translate(-430.49 -783.81)"/><path class="cls-2" d="M611.5,1017v2c-.06-.65-.1-1.3-.13-2Z" transform="translate(-430.49 -783.81)"/><path class="cls-1" d="M611.5,1436.5v.07c0,9.92-11.66,17.93-26,17.93-15.48,0-28-7.6-28-17Z" transform="translate(-430.49 -783.81)"/><path class="cls-1" d="M505.5,1437.5h52c0,9.4-10.73,17-24,17C518,1454.5,505.5,1446.9,505.5,1437.5Z" transform="translate(-430.49 -783.81)"/><path class="cls-2" d="M683,1017v211H611.5V1019a35.82,35.82,0,0,0,71.47-2Z" transform="translate(-430.49 -783.81)"/><path class="cls-2" d="M611.5,1017h-.13c0-.49,0-1,0-1.48a35.83,35.83,0,1,1,71.66,0c0,.5,0,1,0,1.48Z" transform="translate(-430.49 -783.81)"/><path class="cls-2" d="M611.5,1017H683a35.82,35.82,0,0,1-71.47,2Z" transform="translate(-430.49 -783.81)"/><path class="cls-3" d="M536.62,939.92a80.23,80.23,0,1,1,51.09,1.29l-.21.06a80.51,80.51,0,0,1-50.88-1.35Z" transform="translate(-430.49 -783.81)"/><polyline class="cls-3" points="106.13 155.43 106.13 156.11 106.13 192.75 106.13 192.81"/><line class="cls-3" x1="157.22" y1="156.54" x2="157.22" y2="157.4"/><polyline class="cls-3" points="157 156.69 157 157.46 157 193.69"/><line class="cls-4" x1="43.01" y1="195.69" x2="44.02" y2="195.64"/><polyline class="cls-4" points="216 195.69 157.26 193.7 157.22 193.7 157 193.69 157.22 195 148 197.69 142 198.69 131 198.69 119 198.69 106.13 192.75 106 192.69 44.02 195.64"/><line class="cls-3" x1="0.63" y1="237.38" x2="0.63" y2="444.22"/><line class="cls-3" x1="252.89" y1="233.21" x2="253.01" y2="444.69"/><line class="cls-4" x1="75.01" y1="454.69" x2="75.01" y2="653.69"/><line class="cls-4" x1="181.01" y1="652.76" x2="181.01" y2="653.19"/><line class="cls-4" x1="180.01" y1="454.69" x2="181.01" y2="652.69"/><line class="cls-4" x1="180.01" y1="454.19" x2="180.01" y2="454.67"/><line class="cls-4" x1="127.01" y1="523.69" x2="127.01" y2="653.19"/><line class="cls-4" x1="284.01" y1="541.69" x2="285.01" y2="541.69"/><line class="cls-4" x1="1.01" y1="444.69" x2="74.01" y2="444.69"/><line class="cls-4" x1="253.01" y1="444.69" x2="181.01" y2="444.69"/><path class="cls-3" d="M431.5,1228.5c0,16.58,16.55,30,37,30" transform="translate(-430.49 -783.81)"/><path class="cls-3" d="M504.5,1228.5c0,16.58-16.1,30-36,30" transform="translate(-430.49 -783.81)"/><path class="cls-3" d="M611,1228c0,.17,0,.34,0,.5a23.16,23.16,0,0,0,.21,2.78c2,15,17.7,26.72,36.78,26.72" transform="translate(-430.49 -783.81)"/><path class="cls-3" d="M683.5,1228.5c0,16.31-15.88,29.5-35.5,29.5" transform="translate(-430.49 -783.81)"/><path class="cls-4" d="M505.5,1437.5c0,9.4,12.52,17,28,17" transform="translate(-430.49 -783.81)"/><path class="cls-4" d="M557.5,1437.5c0,9.4-10.73,17-24,17" transform="translate(-430.49 -783.81)"/><path class="cls-4" d="M557.5,1437.5c0,9.4,12.52,17,28,17" transform="translate(-430.49 -783.81)"/><path class="cls-4" d="M611.5,1436.5v.07c0,9.92-11.66,17.93-26,17.93" transform="translate(-430.49 -783.81)"/><line class="cls-4" x1="75.01" y1="653.69" x2="127.01" y2="653.69"/><line class="cls-4" x1="181.01" y1="652.69" x2="127.01" y2="653.69"/><polyline class="cls-4" points="127 523.69 127 523.19 127 444.69"/><line class="cls-4" x1="75.01" y1="454.69" x2="74.01" y2="444.69"/><polyline class="cls-4" points="180 454.69 180 454.67 180.72 447.47 181 444.69"/><line class="cls-4" x1="73.01" y1="236.69" x2="74.01" y2="444.69"/><polyline class="cls-4" points="181 235.16 181 444.19 181 444.69"/><polyline class="cls-3" points="75 444.69 127 444.69 180.51 444.69 181 444.69"/><rect class="cls-2" x="73.51" y="216.69" width="107" height="227"/><rect class="cls-2" x="1.01" y="225.69" width="71.5" height="218"/><rect x="75.51" y="445.19" width="51" height="208"/><rect x="127.51" y="444.19" width="53" height="209"/><polygon class="cls-2" points="213.26 196.16 180.5 233.19 73 236.69 68.91 216.69 46.92 195.5 106 193.69 119 198.69 144.68 198.81 160.25 193.51 213.26 196.16"/><path d="M522.53,841.31c7.66,0,7.67-11.9,0-11.9s-7.67,11.9,0,11.9Z" transform="translate(-430.49 -783.81)"/><path d="M598.44,841.31c7.66,0,7.67-11.9,0-11.9s-7.67,11.9,0,11.9Z" transform="translate(-430.49 -783.81)"/><path class="cls-4" d="M526.5,885.5c0,18.24,15.21,33,34,33" transform="translate(-430.49 -783.81)"/><path class="cls-4" d="M599.5,885.5c0,18.24-17.44,33-39,33" transform="translate(-430.49 -783.81)"/></svg>