<svg id="Layer_1" data-name="Layer 1" xmlns="http://www.w3.org/2000/svg" xmlns:xlink="http://www.w3.org/1999/xlink" viewBox="0 0 326 671"><defs><style>.cls-1{fill:#ff9000;}.cls-2{fill:#006837;}.cls-3{fill:#f7931e;}.cls-4,.cls-5{fill:none;stroke-miterlimit:10;}.cls-4{stroke:#231f20;stroke-linecap:round;}.cls-5{stroke:#000;}.cls-6{fill:red;}</style></defs><title>humanwithjacket</title><path class="cls-1" d="M678.5,1203.5l52-11a24,24,0,0,1-24,24C691,1216.5,678.5,1210.69,678.5,1203.5Z" transform="translate(-405 -784)"/><circle class="cls-2" cx="242.5" cy="231.5" r="36"/><path class="cls-1" d="M564.5,784.5a80,80,0,0,1,23,156.63v-.54l-9.14,2.66-2.41.24-9.94,1c-.5,0-1,0-1.51,0a80.11,80.11,0,0,1-25.66-4.2l-.07,0-2.27-.93v.11a80,80,0,0,1,28-155Z" transform="translate(-405 -784)"/><path class="cls-3" d="M611.5,1436.5v0Z" transform="translate(-405 -784)"/><path class="cls-3" d="M611.5,1436.57v.06c-.1,9.89-11.69,17.87-26,17.87-15.48,0-28-7.6-28-17l54-1Z" transform="translate(-405 -784)"/><path class="cls-1" d="M587.5,977.5v.07l-50.84-1-.16-.07v-37c.75.29,1.51.56,2.27.82l.07,0,2.66,1.1,3,1.22,6.69,1.25,2.9.33,3.36.37,4.57,0,3.81,0,.2,0a79,79,0,0,0,21.49-3.35Z" transform="translate(-405 -784)"/><path class="cls-1" d="M587.5,940.59v.54A79,79,0,0,1,566,944.48l9.94-1,2.41-.24Z" transform="translate(-405 -784)"/><path class="cls-3" d="M505.5,1437.5h52c0,9.4-10.73,17-24,17C518,1454.5,505.5,1446.9,505.5,1437.5Z" transform="translate(-405 -784)"/><path class="cls-1" d="M536.5,939.34l2.27.93c-.76-.26-1.52-.53-2.27-.82Z" transform="translate(-405 -784)"/><path class="cls-1" d="M536.66,976.57h-.16v-.07Z" transform="translate(-405 -784)"/><path class="cls-2" d="M474.67,979.44a36,36,0,1,1-2.61-.51C472.94,979.07,473.82,979.24,474.67,979.44Z" transform="translate(-405 -784)"/><path class="cls-1" d="M458.94,1202.24l1.56.26c0,2.59-1.44,5-4,7.15A16.57,16.57,0,0,0,458.94,1202.24Z" transform="translate(-405 -784)"/><path class="cls-1" d="M406.5,1193.5l52.44,8.74a16.57,16.57,0,0,1-2.42,7.41h0c-5.59,4.68-16.48,7.85-29,7.85C415.89,1217.5,406.5,1206.77,406.5,1193.5Z" transform="translate(-405 -784)"/><path class="cls-4" d="M566,944.48c-.5,0-1,0-1.51,0a80.11,80.11,0,0,1-25.66-4.2" transform="translate(-405 -784)"/><path class="cls-4" d="M536.5,939.45a80,80,0,1,1,51,1.68" transform="translate(-405 -784)"/><polyline class="cls-5" points="241.5 195.5 182.76 193.51 182.5 193.5 182.71 194.81 173.5 197.5 167.5 198.5 156.5 198.5 144.5 198.5 131.66 192.57 131.5 192.5 69.67 195.44 68.5 195.5"/><line class="cls-5" x1="100.5" y1="454.5" x2="100.5" y2="653.5"/><line class="cls-5" x1="206.5" y1="652.63" x2="206.5" y2="653.5"/><polyline class="cls-5" points="205.5 454.5 206.49 652.5 206.5 652.57"/><line class="cls-5" x1="152.5" y1="523.5" x2="152.5" y2="653.5"/><line class="cls-5" x1="309.5" y1="541.5" x2="310.5" y2="541.5"/><path class="cls-5" d="M505.5,1437.5c0,9.4,12.52,17,28,17" transform="translate(-405 -784)"/><path class="cls-5" d="M557.5,1437.5c0,9.4-10.73,17-24,17" transform="translate(-405 -784)"/><path class="cls-5" d="M557.5,1437.5c0,9.4,12.52,17,28,17" transform="translate(-405 -784)"/><path class="cls-5" d="M611.5,1436.5v.13c-.1,9.89-11.69,17.87-26,17.87" transform="translate(-405 -784)"/><line class="cls-5" x1="100.5" y1="653.5" x2="152.5" y2="653.5"/><polyline class="cls-5" points="206.5 652.5 206.49 652.5 152.5 653.5"/><line class="cls-5" x1="152.5" y1="523.5" x2="152.5" y2="444.5"/><line class="cls-5" x1="100.5" y1="454.5" x2="99.5" y2="444.5"/><line class="cls-5" x1="205.5" y1="454.5" x2="206.5" y2="444.5"/><line class="cls-5" x1="98.5" y1="236.5" x2="99.5" y2="444.5"/><polyline class="cls-4" points="100.5 444.5 152.5 444.5 206.5 444.5"/><path class="cls-5" d="M460.5,1202.5c0,2.59-1.44,5-4,7.15h0c-5.59,4.68-16.48,7.85-29,7.85" transform="translate(-405 -784)"/><path class="cls-5" d="M406.5,1193.5c0,13.27,9.39,24,21,24" transform="translate(-405 -784)"/><polyline class="cls-5" points="1.5 409.5 53.94 418.24 55.5 418.5"/><path class="cls-5" d="M678.5,1203.5c0,7.19,12.52,13,28,13" transform="translate(-405 -784)"/><path class="cls-5" d="M730.5,1192.5a24,24,0,0,1-24,24" transform="translate(-405 -784)"/><line class="cls-5" x1="325.5" y1="408.5" x2="273.5" y2="419.5"/><path class="cls-4" d="M536.66,976.57l50.84,1v-37l-9.14,2.66-2.41.24-9.94,1-.2,0-3.81,0-4.57,0-3.36-.37-2.9-.33-6.69-1.25-3-1.22-2.66-1.1-.07,0-2.27-.93v37.23Z" transform="translate(-405 -784)"/><rect class="cls-6" x="99" y="216.5" width="107" height="227"/><rect x="101" y="445" width="51" height="208"/><rect x="153" y="444" width="53" height="209"/><polygon class="cls-2" points="238.76 195.97 206 233 98.5 236.5 94.4 216.5 72.42 195.31 131.5 193.5 144.5 198.5 170.17 198.62 185.74 193.32 238.76 195.97"/><path d="M522.53,841.31c7.66,0,7.67-11.9,0-11.9s-7.67,11.9,0,11.9Z" transform="translate(-405 -784)"/><path d="M598.44,841.31c7.66,0,7.67-11.9,0-11.9s-7.67,11.9,0,11.9Z" transform="translate(-405 -784)"/><path class="cls-5" d="M526.5,885.5c0,18.24,15.21,33,34,33" transform="translate(-405 -784)"/><path class="cls-5" d="M599.5,885.5c0,18.24-17.44,33-39,33" transform="translate(-405 -784)"/><image width="646" height="720" transform="translate(0 161) scale(0.5 0.39)" xlink:href="Fall 17/coat.png"/></svg>
