<?xml version="1.0" encoding="utf-8"?>
<!-- Generator: Adobe Illustrator 22.0.1, SVG Export Plug-In . SVG Version: 6.00 Build 0)  -->
<svg version="1.1" id="Layer_1" xmlns="http://www.w3.org/2000/svg" xmlns:xlink="http://www.w3.org/1999/xlink" x="0px" y="0px"
	 viewBox="0 0 50 62.5" style="enable-background:new 0 0 50 62.5;" xml:space="preserve">
<style type="text/css">
	.st0{fill:#8A0000;}
	.st1{font-family:'HelveticaNeue-Bold';}
	.st2{font-size:5px;}
	.st3{enable-background:new    ;}
</style>
<g>
	<path class="st0" d="M31.2,28.6V11c0-1.7-0.7-3.3-1.9-4.5c-1.2-1.2-2.9-1.9-4.5-1.9c-3.5,0-6.4,2.9-6.4,6.4v17.3
		c-3.6,2.1-5.7,5.9-5.7,10.1c0,6.6,5.4,11.9,11.9,11.9c6.6,0,11.9-5.3,11.9-11.9C36.5,34.5,34.5,30.8,31.2,28.6z M24.6,47.7
		c-5.1,0-9.3-4.2-9.3-9.3c0-3.5,1.9-6.6,5-8.2l0.7-0.4V11c0-2.1,1.7-3.8,3.7-3.8c1,0,2,0.4,2.7,1.1c0.7,0.7,1.1,1.6,1.1,2.7v19.1
		l0.7,0.4c2.8,1.6,4.6,4.7,4.6,8C33.8,43.6,29.7,47.7,24.6,47.7z"/>
	<path class="st0" d="M26.1,33.4V17.2c0-0.7-0.6-1.3-1.3-1.3c-0.7,0-1.3,0.6-1.3,1.3v16.1c-2.4,0.5-4.2,2.7-4.2,5.2
		c0,2.9,2.4,5.3,5.3,5.3s5.3-2.4,5.3-5.3C29.9,36.1,28.3,34.1,26.1,33.4z"/>
	<path class="st0" d="M39.4,14.8h-4.9c-0.7,0-1.3,0.6-1.3,1.3c0,0.7,0.6,1.3,1.3,1.3h4.9c0.7,0,1.3-0.6,1.3-1.3
		C40.8,15.4,40.2,14.8,39.4,14.8z"/>
	<path class="st0" d="M39.4,19h-4.9c-0.7,0-1.3,0.6-1.3,1.3c0,0.7,0.6,1.3,1.3,1.3h4.9c0.7,0,1.3-0.6,1.3-1.3
		C40.8,19.6,40.2,19,39.4,19z"/>
	<path class="st0" d="M39.4,23.3h-4.9c-0.7,0-1.3,0.6-1.3,1.3c0,0.7,0.6,1.3,1.3,1.3h4.9c0.7,0,1.3-0.6,1.3-1.3
		C40.8,23.9,40.2,23.3,39.4,23.3z"/>
</g>
<text transform="matrix(1 0 0 1 0 65)" class="st1 st2">Created by Luboš Volkov</text>
<text transform="matrix(1 0 0 1 0 70)" class="st1 st2">from the Noun Project</text>
</svg>
